PathFileType	4	(X/Y/Z)	Patient4_TMGait_0pt4_02_left_03.trc.trc
DataRate	CameraRate	NumFrames	NumMarkers	Units	OrigDataRate	OrigDataStartFrame	OrigNumFrames
74.074074074074	74.074074074074	6	33	mm	74.074074074074	124	       141
Frame#	Time	Sacral			L.Shoulder			Chest			R.Shoulder			Neck			R.ASIS			L.ASIS			R.Thigh.Superior			R.Thigh.Lateral			R.Thigh.Inferior			R.Patella			L.Thigh.Superior			L.Thigh.Lateral			L.Thigh.Inferior			L.Patella			L.Shank.Superior			L.Shank.Lateral			L.Shank.Inferior			R.Shank.Superior			R.Shank.Lateral			R.Shank.Inferior			R.Heel			R.Midfoot.Superior			R.Midfoot.Lateral			R.Toe			L.Heel			L.Midfoot.Lateral			L.Midfoot.Superior			L.Toe			L.Elbow			L.Wrist			R.Elbow			R.Wrist			
		X1	Y1	Z1	X2	Y2	Z2	X3	Y3	Z3	X4	Y4	Z4	X5	Y5	Z5	X6	Y6	Z6	X7	Y7	Z7	X8	Y8	Z8	X9	Y9	Z9	X10	Y10	Z10	X11	Y11	Z11	X12	Y12	Z12	X13	Y13	Z13	X14	Y14	Z14	X15	Y15	Z15	X16	Y16	Z16	X17	Y17	Z17	X18	Y18	Z18	X19	Y19	Z19	X20	Y20	Z20	X21	Y21	Z21	X22	Y22	Z22	X23	Y23	Z23	X24	Y24	Z24	X25	Y25	Z25	X26	Y26	Z26	X27	Y27	Z27	X28	Y28	Z28	X29	Y29	Z29	X30	Y30	Z30	X31	Y31	Z31	X32	Y32	Z32	X33	Y33	Z33	

124	5.580500000000	874.653793456407	999.573334755131	528.342471947522	1014.294926943001	1426.681437109424	317.435990033074	1145.826274460004	1362.661668447662	457.882779494609	1093.931507822887	1437.682774622696	643.062096861916	1024.304244693754	1489.304984773441	472.961446264027	1116.827248433657	935.159754441318	610.219282521500	1064.622493615866	958.759370769758	340.330048763933	1117.549762079999	722.799095827192	581.509880954311	1023.282068753584	625.513303419444	653.483941403849	1078.552943402019	562.071169647655	567.919765546469	1060.872990366487	475.086230040178	574.619390499616	1145.864036639924	769.122539588078	365.316149654488	1084.842147303888	640.018198811734	298.829398730517	1191.032141709056	580.310829656256	353.024102918148	1209.515167661373	509.769905097877	352.119304877164	1184.921043908783	435.441968553511	343.152289965148	1100.657462650162	315.170902234567	295.397891516258	1174.977196966989	205.857546236683	349.423451747665	1020.920907666138	391.007697300252	585.625025100267	939.885680915444	299.812072888188	655.539361745207	959.352185057330	199.727033609660	590.242837770920	803.916150120928	44.419192615367	572.036117708491	976.585388256446	95.963446250399	600.175319368052	889.733749579976	36.962012595412	643.472809404670	1097.490074429846	41.520454136794	624.329436480074	1069.706312145357	40.212948605190	391.087191906687	1140.266426257937	38.778330362729	307.957055695296	1220.477066024947	105.896020121395	328.842203440869	1348.941926739911	61.840587418916	296.062610066648	901.600686630025	1086.660565824227	230.034340584077	922.425943055690	824.274920544753	233.469524420210	1214.977024219759	1120.793713691696	760.731525457963	1410.560412911696	1213.751649974812	641.814526609012	
125	5.594000000000	875.019057282007	998.819429487551	525.671379833550	1014.093070635991	1425.373510058381	314.078870077531	1145.742417480176	1361.896160399406	454.670765819714	1093.634362428365	1437.148679919543	639.749620985449	1024.021894804506	1488.423483401658	469.518621443494	1117.251158962538	934.219122385469	607.853351960952	1065.186235103859	957.609437746812	338.068407880120	1117.235905321097	721.588334787414	579.595807638630	1022.418228368692	624.688707681742	651.542130027219	1077.339913750156	560.839739731072	566.063341007074	1059.248652934097	473.554311632330	572.899958415381	1145.500301207430	766.874731367136	363.176052327146	1082.577598681927	638.296960738932	297.597922804872	1188.645589215555	578.026536635655	351.514790926929	1205.843194642777	507.117491831146	351.239965014930	1181.045920847466	432.677003823419	342.468214222343	1095.749459998931	312.891732217681	295.106659948630	1168.747273041618	203.202678521212	349.966025513895	1018.340950034416	389.920644295528	584.233461648722	936.563715167777	299.723945542034	654.791780300057	954.890800826508	199.282753834291	589.722079494055	798.409280577433	44.587276661002	572.163814090215	971.176166677504	95.956505116118	600.087643499347	884.296895378491	36.987925004023	643.530976397592	1092.064482172797	41.408398471735	624.328368186920	1061.234984789705	39.435025964577	392.035869611802	1131.651775685812	37.461307349417	308.677760563202	1212.923535966176	102.983983269497	330.019197537834	1340.939069675215	57.091268929450	296.794155840123	902.577116525101	1084.977825040003	226.324596009828	926.729980675119	822.789040894185	228.456012132360	1213.339615378089	1119.289073591238	757.539995294286	1409.624162246847	1209.951263537195	637.529834538378	
126	5.607500000000	875.282558678693	998.214002061605	522.936089356302	1014.043701856648	1424.174847036920	310.598269226410	1145.731264548391	1361.224571061674	451.400354625063	1093.393449233921	1436.795228808320	636.340754002055	1023.854614366374	1487.700138689394	465.955119826804	1117.579493453615	933.414154442929	605.361796616806	1065.616220184471	956.726199313670	335.684230897107	1117.162441314769	720.568047243063	577.510370317815	1021.948084834566	623.918577770343	649.396822785258	1076.668993258621	559.709166160526	564.042711020658	1058.302698891925	471.966607512746	571.083696525588	1145.017495205901	764.926035739867	361.018007756580	1080.537416117968	636.997834976548	296.098277757057	1186.256788601243	576.109995347288	350.049391255261	1202.335622018725	504.965632464319	350.331934377005	1177.509010373129	430.420333370496	341.694893389810	1091.584276555461	310.995493961406	294.415713737330	1163.220451875714	201.046717781409	350.296356546350	1016.240669668230	388.865937745599	582.721112400823	933.603742697649	299.811285206212	653.918788592733	950.670813573964	198.966681553151	589.156698284045	792.951280711769	45.096298601478	572.315800685621	965.905645924895	96.002336580956	600.005736117302	878.925762554186	37.175767068015	643.579233224366	1086.707342462223	41.199891672752	624.341818118840	1053.719001886400	38.847806324823	392.609904211977	1124.089869966725	36.527197022339	309.115728206026	1206.187779214645	100.707698277239	330.984838418465	1333.878888903515	53.354251433392	297.464699709732	904.137136163201	1083.263958927713	222.366767452072	931.651090353797	821.317155770803	223.045349220020	1211.167789762848	1117.741027499158	754.414985904451	1408.830945187411	1204.875546753586	633.388560805485	
127	5.621000000000	875.422015751687	997.814636127868	520.151423397839	1014.119175496497	1423.174007797644	307.045953823370	1145.779716542913	1360.700616189755	448.096421657864	1093.234401289419	1436.679962773008	632.863637595328	1023.797718330751	1487.198405115109	462.315345484670	1117.771825005895	932.816619404235	602.729032002270	1065.866579721764	956.182457699384	333.140384477520	1117.290515379764	719.815430802522	575.230648602659	1021.887141886659	623.266717234853	647.067700146120	1076.589095183808	558.749965346816	561.887742159213	1058.116687914987	470.374833103151	569.238308812631	1144.461391949105	763.430969786656	358.784167329413	1078.764537023618	636.162231367545	294.352263244737	1183.921286103038	574.628440684063	348.578885210288	1199.033171800432	503.350089331246	349.380761527244	1174.313658013987	428.708323347922	340.845499707026	1088.105168405607	309.544267544626	293.386593269013	1158.338898857526	199.422838030614	350.423060410963	1014.686620087326	387.902541883726	581.137066759996	931.046812220335	300.146119275254	652.935615393845	946.749632197713	198.850255114736	588.575621115162	787.573771315173	46.073589832307	572.491706941664	960.826077258512	96.123355764432	599.946152940197	873.640004278249	37.594503620797	643.619190704233	1081.424775618969	40.890636080702	624.371099488854	1047.116079562101	38.458677920098	392.869784244760	1117.507775846465	35.952359016757	309.312154514359	1200.202036546580	99.079565160070	331.708895367181	1327.680620257041	50.639877378759	298.009615747428	906.289031567112	1081.612231562276	218.198778221894	937.170613031981	819.959609310952	217.299086702196	1208.466704107782	1116.215726768867	751.328500163896	1408.147554502962	1198.457093885261	629.388981317553	
128	5.634500000000	875.429524642309	997.658456396857	517.307716251887	1014.284373532370	1422.445835735037	303.467471746945	1145.865305754013	1360.370494277426	444.782479292929	1093.153712404005	1436.837391214962	629.346261846080	1023.830270673543	1486.962724249953	458.641122813029	1117.797680210174	932.485177463833	599.946428323787	1065.928781527283	956.013649820947	330.406346110223	1117.584048472749	719.393474055554	572.756129762946	1022.243876936460	622.790213437935	644.589167127420	1077.140568945078	558.025729920314	559.640907644835	1058.760473901777	468.833625727554	567.444986025043	1143.883935206119	762.467313736224	356.415713334165	1077.231053280244	635.765126807985	292.406825137006	1181.645060178929	573.567384924493	347.050400621369	1195.912385232580	502.228029458575	348.380763196876	1171.385395946214	427.507434760882	339.940572430228	1085.145652860155	308.536152482424	292.125423960402	1153.956544685422	198.299188721788	350.378022395037	1013.746285556475	387.086228589957	579.542198540194	928.936078845795	300.796720455043	651.866988269946	943.188693541092	199.003350620719	588.012525364315	782.318491666096	47.650040243248	572.687374584624	955.989817297716	96.341666174895	599.925203310552	868.460609016794	38.320218824324	643.653413474682	1076.214595699794	40.487729899719	624.414876637705	1041.274820104760	38.248773710111	392.892704919464	1111.724899363855	35.677335660855	309.323277768152	1194.812403228423	98.038896508268	332.193764376499	1322.171155583912	48.845759830610	298.396588500278	909.009739052074	1080.115333727685	213.849269485407	943.288233083846	818.821792634929	211.279918785313	1205.247312765274	1114.772399969135	748.252947957201	1407.498608847354	1190.625299127075	625.542012722617	
129	5.648000000000	875.307960837469	997.759430369617	514.372560573308	1014.503751550800	1422.042440585339	299.895112106898	1145.957903052855	1360.268977781027	441.479606705017	1093.113826915620	1437.274355419524	625.814676678634	1023.918217056556	1487.014181624055	454.965734632170	1117.638275802198	932.457073224393	597.015676366573	1065.830271094280	956.215692934531	327.468772131534	1118.024736794627	719.343942903391	570.108122364459	1023.031110163110	622.530361256619	642.002574722504	1078.362475758354	557.586164767023	557.346236759094	1060.295096025442	467.395238177037	565.779746751208	1143.324559223054	762.019219877544	353.856320800923	1075.830169434441	635.721493383851	290.326274359403	1179.381445376572	572.845573507122	345.418453453076	1192.895839982358	501.505272084208	347.337395164347	1168.594798678462	426.735354161857	339.003012058418	1082.477818570527	307.917030124882	290.755409385538	1149.884162673244	197.598536005854	350.206580202286	1013.491888209224	386.463596122076	577.996834351457	927.323673894990	301.823254514656	650.740050259406	940.055319760699	199.489656047724	587.499062425495	777.239106719779	49.954986452531	572.894483416313	951.446852555394	96.677701070563	599.953679518029	863.410919325044	39.434804508945	643.684032826199	1071.065211244253	40.009166280382	624.468876178203	1035.985943920917	38.181886406291	392.759087342825	1106.507877255181	35.624378449293	309.209863127721	1189.825271951980	97.476991946542	332.468449453216	1317.135011826527	47.797383472809	298.623862516745	912.247503159541	1078.855672008532	209.332889756043	950.021155219254	818.006263316554	205.049756561074	1201.525854991995	1113.455424629408	745.161537258034	1406.762733797143	1181.313334638186	621.876719747772	
